<?xml version="1.0" encoding="UTF-8"?>
<!DOCTYPE svg PUBLIC "-//W3C//DTD SVG 1.1//EN" "http://www.w3.org/Graphics/SVG/1.1/DTD/svg11.dtd">
<!-- Creator: CorelDRAW -->
<svg xmlns="http://www.w3.org/2000/svg" xml:space="preserve" width="250px" height="250px" version="1.1" style="shape-rendering:geometricPrecision; text-rendering:geometricPrecision; image-rendering:optimizeQuality; fill-rule:evenodd; clip-rule:evenodd"
viewBox="0 0 250 250"
 xmlns:xlink="http://www.w3.org/1999/xlink"
 xmlns:xodm="http://www.corel.com/coreldraw/odm/2003">
 <defs>
  <style type="text/css">
   <![CDATA[
    .str1 {stroke:black;stroke-miterlimit:2.61313}
    .str2 {stroke:#F0C808;stroke-width:10;stroke-miterlimit:2.61313}
    .str0 {stroke:black;stroke-width:10;stroke-miterlimit:2.61313}
    .fil3 {fill:none}
    .fil4 {fill:#00B5D9}
    .fil0 {fill:#003B6F}
    .fil2 {fill:black;fill-rule:nonzero}
    .fil6 {fill:#00B5D9;fill-rule:nonzero}
    .fil1 {fill:#F0C808;fill-rule:nonzero}
    .fil5 {fill:#003B6F;fill-rule:nonzero}
   ]]>
  </style>
 </defs>
 <g id="Layer_x0020_1">
  <metadata id="CorelCorpID_0Corel-Layer"/>
  <g id="_1571530578416">
   <circle class="fil0 str0" cx="-153.362" cy="122.711" r="101.006"/>
   <path class="fil1" d="M-194.205 78.852l0 38.116c6.393,-7.589 14.054,-11.396 22.938,-11.396 4.572,0 8.69,0.838 12.354,2.515 3.663,1.7 6.417,3.831 8.283,6.464 1.868,2.609 3.137,5.507 3.807,8.692 0.694,3.183 1.03,8.115 1.03,14.795l0 43.672 -19.682 0 0 -39.315c0,-7.804 -0.381,-12.761 -1.124,-14.868 -0.766,-2.105 -2.108,-3.782 -4.022,-5.003 -1.915,-1.246 -4.309,-1.867 -7.207,-1.867 -3.304,0 -6.249,0.789 -8.859,2.394 -2.609,1.58 -4.501,3.974 -5.697,7.183 -1.222,3.184 -1.821,7.925 -1.821,14.174l0 37.302 -19.68 0 0 -102.858 19.68 0zm28.676 29.162l18.389 0 0 10.941c2.394,-3.736 5.602,-6.752 9.673,-9.075 4.07,-2.298 8.595,-3.448 13.551,-3.448 8.643,0 15.993,3.4 22.027,10.201 6.033,6.775 9.05,16.256 9.05,28.372 0,12.472 -3.04,22.145 -9.121,29.066 -6.083,6.919 -13.457,10.367 -22.124,10.367 -4.118,0 -7.854,-0.814 -11.205,-2.467 -3.329,-1.627 -6.871,-4.428 -10.558,-8.404l0 37.302 -19.682 0 0 -102.855zm19.393 36.129c0,8.404 1.653,14.604 4.982,18.626 3.303,3.999 7.35,6.01 12.091,6.01 4.572,0 8.38,-1.844 11.42,-5.531 3.04,-3.687 4.549,-9.72 4.549,-18.124 0,-7.853 -1.556,-13.67 -4.693,-17.478 -3.112,-3.807 -6.991,-5.698 -11.612,-5.698 -4.812,0 -8.811,1.867 -11.971,5.603 -3.185,3.734 -4.766,9.266 -4.766,16.592zm-1.119 -33.452l-19.68 0 0 -74.556 18.244 0 0 10.582c3.136,-5.004 5.96,-8.285 8.475,-9.841 2.515,-1.556 5.364,-2.323 8.548,-2.323 4.502,0 8.835,1.246 13,3.712l-6.104 17.192c-3.329,-2.155 -6.417,-3.233 -9.266,-3.233 -2.778,0 -5.124,0.765 -7.04,2.274 -1.915,1.532 -3.424,4.262 -4.525,8.236 -1.101,3.975 -1.652,12.306 -1.652,24.971l0 22.986z"/>
  </g>
  <path class="fil2" d="M-699.492 -80.158l0 18.48c0,1.936 -0.065,3.808 -0.176,5.632 -0.096,1.824 -0.225,3.248 -0.352,4.256l0.624 0c1.087,-1.808 2.431,-3.312 4.032,-4.48 1.584,-1.168 3.376,-2.048 5.359,-2.64 1.985,-0.592 4.097,-0.896 6.353,-0.896 3.968,0 7.344,0.656 10.128,1.984 2.784,1.328 4.912,3.376 6.4,6.144 1.472,2.768 2.224,6.352 2.224,10.784l0 33.696 -11.024 0 0 -31.616c0,-4.016 -0.816,-7.024 -2.48,-9.024 -1.648,-2.016 -4.224,-3.008 -7.68,-3.008 -3.345,0 -6,0.688 -7.953,2.064 -1.951,1.392 -3.36,3.424 -4.191,6.112 -0.849,2.688 -1.264,5.968 -1.264,9.824l0 25.648 -11.024 0 0 -72.96 11.024 0z"/>
  <path class="fil2" d="M-649.361 -61.528c6.16,0 11.104,2.24 14.832,6.72 3.744,4.48 5.616,11.136 5.616,19.968 0,5.856 -0.88,10.768 -2.608,14.768 -1.728,4 -4.16,7.024 -7.264,9.056 -3.104,2.032 -6.72,3.056 -10.848,3.056 -2.624,0 -4.912,-0.336 -6.848,-1.024 -1.936,-0.688 -3.6,-1.6 -4.976,-2.704 -1.36,-1.104 -2.528,-2.32 -3.456,-3.632l-0.656 0c0.144,1.248 0.304,2.624 0.432,4.144 0.144,1.504 0.224,2.88 0.224,4.128l0 21.072 -11.072 0 0 -74.592 9.008 0 1.536 7.2 0.528 0c0.96,-1.472 2.144,-2.832 3.536,-4.08 1.392,-1.248 3.072,-2.24 5.056,-2.976 1.984,-0.736 4.304,-1.104 6.96,-1.104zm-2.944 8.992c-3.04,0 -5.472,0.608 -7.296,1.808 -1.824,1.184 -3.152,2.976 -3.984,5.376 -0.832,2.384 -1.264,5.376 -1.328,8.976l0 1.536c0,3.824 0.4,7.056 1.184,9.712 0.8,2.656 2.128,4.672 3.984,6.048 1.872,1.376 4.384,2.08 7.568,2.08 2.688,0 4.928,-0.736 6.688,-2.192 1.76,-1.456 3.088,-3.536 3.968,-6.24 0.864,-2.704 1.312,-5.888 1.312,-9.552 0,-5.552 -0.992,-9.856 -2.976,-12.928 -2,-3.072 -5.024,-4.624 -9.12,-4.624z"/>
  <path class="fil2" d="M-650.648 -103.217c0.851,0 1.797,0.045 2.805,0.135 1.025,0.091 1.907,0.196 2.632,0.346l-1.009 9.709c-0.646,-0.181 -1.434,-0.316 -2.379,-0.407 -0.93,-0.075 -1.781,-0.12 -2.521,-0.12 -1.938,0 -3.782,0.301 -5.531,0.888 -1.749,0.602 -3.309,1.505 -4.664,2.724 -1.356,1.204 -2.411,2.724 -3.183,4.531 -0.772,1.806 -1.15,3.913 -1.15,6.306l0 25.377 -10.905 0 0 -48.586 8.494 0 1.481 8.624 0.504 0c1.024,-1.731 2.285,-3.326 3.782,-4.771 1.512,-1.43 3.246,-2.589 5.2,-3.462 1.954,-0.858 4.097,-1.294 6.444,-1.294z"/>
  <circle class="fil3 str1" cx="-649.342" cy="-41.586" r="94.92"/>
  <g id="_1571530574672">
   <circle class="fil4 str2" cx="128.89" cy="123.289" r="101.006"/>
   <path class="fil5" d="M88.048 79.43l0 38.116c6.393,-7.589 14.053,-11.396 22.937,-11.396 4.573,0 8.69,0.838 12.354,2.514 3.663,1.701 6.417,3.831 8.283,6.465 1.868,2.609 3.137,5.507 3.807,8.692 0.694,3.183 1.03,8.115 1.03,14.795l0 43.671 -19.681 0 0 -39.314c0,-7.805 -0.382,-12.761 -1.125,-14.868 -0.766,-2.105 -2.108,-3.782 -4.022,-5.003 -1.915,-1.246 -4.309,-1.867 -7.207,-1.867 -3.303,0 -6.249,0.789 -8.859,2.394 -2.609,1.58 -4.501,3.974 -5.697,7.182 -1.222,3.185 -1.82,7.926 -1.82,14.174l0 37.302 -19.681 0 0 -102.857 19.681 0zm28.675 29.162l18.389 0 0 10.941c2.394,-3.736 5.603,-6.753 9.673,-9.075 4.07,-2.298 8.595,-3.448 13.552,-3.448 8.643,0 15.993,3.4 22.026,10.201 6.034,6.775 9.05,16.256 9.05,28.372 0,12.472 -3.04,22.145 -9.121,29.066 -6.083,6.919 -13.457,10.367 -22.124,10.367 -4.117,0 -7.853,-0.815 -11.204,-2.467 -3.329,-1.627 -6.872,-4.428 -10.559,-8.404l0 37.302 -19.682 0 0 -102.855zm19.394 36.129c0,8.404 1.652,14.604 4.981,18.626 3.303,3.999 7.35,6.01 12.091,6.01 4.572,0 8.38,-1.844 11.42,-5.531 3.041,-3.687 4.549,-9.721 4.549,-18.124 0,-7.853 -1.556,-13.671 -4.693,-17.478 -3.112,-3.808 -6.991,-5.698 -11.612,-5.698 -4.812,0 -8.811,1.867 -11.97,5.603 -3.185,3.734 -4.766,9.266 -4.766,16.592zm-1.12 -33.452l-19.68 0 0 -74.557 18.244 0 0 10.583c3.136,-5.004 5.961,-8.285 8.475,-9.841 2.515,-1.556 5.364,-2.323 8.548,-2.323 4.502,0 8.835,1.245 13,3.712l-6.104 17.192c-3.329,-2.156 -6.417,-3.233 -9.266,-3.233 -2.777,0 -5.124,0.765 -7.04,2.274 -1.915,1.532 -3.423,4.262 -4.525,8.236 -1.101,3.975 -1.652,12.306 -1.652,24.971l0 22.986z"/>
  </g>
  <g id="_1571530575152">
   <circle class="fil0 str2" cx="-149.014" cy="374.809" r="101.006"/>
   <path class="fil6" d="M-189.856 330.95l0 38.117c6.393,-7.59 14.053,-11.397 22.937,-11.397 4.573,0 8.691,0.838 12.354,2.515 3.663,1.7 6.417,3.831 8.283,6.464 1.868,2.61 3.137,5.507 3.807,8.692 0.694,3.183 1.03,8.115 1.03,14.795l0 43.672 -19.681 0 0 -39.315c0,-7.804 -0.382,-12.761 -1.125,-14.868 -0.765,-2.105 -2.108,-3.782 -4.021,-5.003 -1.916,-1.246 -4.31,-1.867 -7.208,-1.867 -3.303,0 -6.249,0.789 -8.858,2.394 -2.61,1.58 -4.502,3.974 -5.698,7.183 -1.222,3.184 -1.82,7.925 -1.82,14.174l0 37.302 -19.681 0 0 -102.858 19.681 0zm28.675 29.162l18.389 0 0 10.941c2.394,-3.736 5.603,-6.752 9.673,-9.075 4.07,-2.298 8.596,-3.448 13.552,-3.448 8.643,0 15.993,3.4 22.026,10.201 6.034,6.775 9.05,16.256 9.05,28.372 0,12.473 -3.04,22.145 -9.121,29.066 -6.083,6.919 -13.457,10.367 -22.123,10.367 -4.118,0 -7.854,-0.814 -11.205,-2.467 -3.329,-1.627 -6.872,-4.428 -10.559,-8.404l0 37.302 -19.682 0 0 -102.855zm19.394 36.129c0,8.404 1.652,14.604 4.981,18.626 3.304,3.999 7.35,6.01 12.091,6.01 4.572,0 8.38,-1.844 11.42,-5.531 3.041,-3.687 4.549,-9.72 4.549,-18.124 0,-7.853 -1.556,-13.67 -4.693,-17.478 -3.111,-3.807 -6.99,-5.698 -11.612,-5.698 -4.812,0 -8.811,1.867 -11.97,5.603 -3.185,3.734 -4.766,9.266 -4.766,16.592zm-1.12 -33.452l-19.68 0 0 -74.556 18.245 0 0 10.582c3.135,-5.004 5.96,-8.285 8.474,-9.841 2.515,-1.556 5.364,-2.323 8.549,-2.323 4.501,0 8.834,1.246 13,3.712l-6.105 17.192c-3.329,-2.155 -6.417,-3.233 -9.266,-3.233 -2.777,0 -5.124,0.765 -7.039,2.274 -1.916,1.532 -3.424,4.262 -4.526,8.236 -1.101,3.975 -1.652,12.306 -1.652,24.972l0 22.985z"/>
  </g>
 </g>
</svg>
